<svg width="13" height="13" viewBox="0 0 13 13" fill="none" xmlns="http://www.w3.org/2000/svg">
<g opacity="0.8" clip-path="url(#clip0_2_23)">
<path fill-rule="evenodd" clip-rule="evenodd" d="M7.07417 8.69918C6.92183 8.85133 6.71532 8.9368 6.50001 8.9368C6.28469 8.9368 6.07818 8.85133 5.92584 8.69918L2.86109 5.63551C2.70874 5.48309 2.62318 5.27639 2.62323 5.06088C2.62328 4.84538 2.70894 4.63872 2.86136 4.48637C3.01378 4.33402 3.22048 4.24845 3.43599 4.2485C3.6515 4.24856 3.85816 4.33421 4.01051 4.48664L6.50001 6.97614L8.98951 4.48664C9.14268 4.33856 9.34788 4.25657 9.56091 4.25832C9.77395 4.26007 9.97778 4.34542 10.1285 4.49599C10.2792 4.64657 10.3648 4.85031 10.3667 5.06335C10.3687 5.27638 10.2869 5.48166 10.1389 5.63497L7.07472 8.69972L7.07417 8.69918Z" fill="#171717"/>
</g>
<defs>
<clipPath id="clip0_2_23">
<rect width="13" height="13" fill="white"/>
</clipPath>
</defs>
</svg>
