<svg width="116" height="39" viewBox="0 0 116 39" fill="none" xmlns="http://www.w3.org/2000/svg">
<path fill-rule="evenodd" clip-rule="evenodd" d="M21.5 7.5L11 8L11.0282 27.9697H21.5V7.5ZM6.53521 0V32.303H29V0H6.53521Z" fill="#2B2B2B"/>
<path fill-rule="evenodd" clip-rule="evenodd" d="M17.9718 11.0303H4.49296V34.6667H17.9718V11.0303ZM0 6.69697V39H22.4648V6.69697H0Z" fill="#171717"/>
<path d="M36.28 27.5C36.104 27.5 35.96 27.444 35.848 27.332C35.736 27.22 35.68 27.076 35.68 26.9V11.3C35.68 11.124 35.736 10.98 35.848 10.868C35.96 10.756 36.104 10.7 36.28 10.7H38.824C39.096 10.7 39.288 10.764 39.4 10.892C39.528 11.004 39.608 11.092 39.64 11.156L45.496 20.396V11.3C45.496 11.124 45.552 10.98 45.664 10.868C45.776 10.756 45.92 10.7 46.096 10.7H48.976C49.152 10.7 49.296 10.756 49.408 10.868C49.52 10.98 49.576 11.124 49.576 11.3V26.9C49.576 27.06 49.52 27.204 49.408 27.332C49.296 27.444 49.152 27.5 48.976 27.5H46.408C46.152 27.5 45.96 27.436 45.832 27.308C45.72 27.18 45.648 27.092 45.616 27.044L39.76 18.164V26.9C39.76 27.076 39.704 27.22 39.592 27.332C39.48 27.444 39.336 27.5 39.16 27.5H36.28ZM59.794 27.74C58.322 27.74 57.042 27.5 55.954 27.02C54.866 26.54 54.018 25.82 53.41 24.86C52.802 23.884 52.466 22.668 52.402 21.212C52.386 20.524 52.378 19.836 52.378 19.148C52.378 18.46 52.386 17.764 52.402 17.06C52.466 15.62 52.802 14.412 53.41 13.436C54.034 12.444 54.89 11.7 55.978 11.204C57.066 10.708 58.338 10.46 59.794 10.46C61.234 10.46 62.498 10.708 63.586 11.204C64.69 11.7 65.554 12.444 66.178 13.436C66.802 14.412 67.138 15.62 67.186 17.06C67.218 17.764 67.234 18.46 67.234 19.148C67.234 19.836 67.218 20.524 67.186 21.212C67.122 22.668 66.786 23.884 66.178 24.86C65.57 25.82 64.722 26.54 63.634 27.02C62.546 27.5 61.266 27.74 59.794 27.74ZM59.794 24.284C60.642 24.284 61.33 24.028 61.858 23.516C62.402 23.004 62.69 22.188 62.722 21.068C62.754 20.364 62.77 19.7 62.77 19.076C62.77 18.452 62.754 17.804 62.722 17.132C62.69 16.38 62.546 15.772 62.29 15.308C62.05 14.828 61.714 14.476 61.282 14.252C60.85 14.028 60.354 13.916 59.794 13.916C59.25 13.916 58.762 14.028 58.33 14.252C57.898 14.476 57.554 14.828 57.298 15.308C57.042 15.772 56.898 16.38 56.866 17.132C56.85 17.804 56.842 18.452 56.842 19.076C56.842 19.7 56.85 20.364 56.866 21.068C56.914 22.188 57.202 23.004 57.73 23.516C58.258 24.028 58.946 24.284 59.794 24.284ZM70.6159 27.5C70.4399 27.5 70.2959 27.444 70.1839 27.332C70.0719 27.22 70.0159 27.076 70.0159 26.9V11.3C70.0159 11.124 70.0719 10.98 70.1839 10.868C70.2959 10.756 70.4399 10.7 70.6159 10.7H76.8559C78.4239 10.7 79.7599 10.956 80.8639 11.468C81.9679 11.964 82.8159 12.7 83.4079 13.676C83.9999 14.636 84.3199 15.828 84.3679 17.252C84.3839 17.956 84.3919 18.572 84.3919 19.1C84.3919 19.628 84.3839 20.236 84.3679 20.924C84.3039 22.412 83.9839 23.644 83.4079 24.62C82.8479 25.596 82.0239 26.324 80.9359 26.804C79.8639 27.268 78.5439 27.5 76.9759 27.5H70.6159ZM74.3119 24.044H76.8559C77.5439 24.044 78.1119 23.94 78.5599 23.732C79.0239 23.508 79.3679 23.164 79.5919 22.7C79.8319 22.236 79.9599 21.628 79.9759 20.876C80.0079 20.412 80.0239 19.996 80.0239 19.628C80.0399 19.26 80.0399 18.892 80.0239 18.524C80.0239 18.156 80.0079 17.748 79.9759 17.3C79.9439 16.212 79.6559 15.42 79.1119 14.924C78.5839 14.412 77.7919 14.156 76.7359 14.156H74.3119V24.044ZM87.7956 27.5C87.6196 27.5 87.4756 27.444 87.3636 27.332C87.2516 27.22 87.1956 27.076 87.1956 26.9V11.3C87.1956 11.124 87.2516 10.98 87.3636 10.868C87.4756 10.756 87.6196 10.7 87.7956 10.7H98.8116C98.9876 10.7 99.1316 10.756 99.2436 10.868C99.3716 10.98 99.4356 11.124 99.4356 11.3V13.724C99.4356 13.9 99.3716 14.044 99.2436 14.156C99.1316 14.268 98.9876 14.324 98.8116 14.324H91.4196V17.852H98.3316C98.5076 17.852 98.6516 17.916 98.7636 18.044C98.8916 18.156 98.9556 18.3 98.9556 18.476V20.876C98.9556 21.036 98.8916 21.18 98.7636 21.308C98.6516 21.42 98.5076 21.476 98.3316 21.476H91.4196V26.9C91.4196 27.076 91.3636 27.22 91.2516 27.332C91.1396 27.444 90.9956 27.5 90.8196 27.5H87.7956ZM102.608 27.5C102.432 27.5 102.288 27.444 102.176 27.332C102.064 27.22 102.008 27.076 102.008 26.9V11.3C102.008 11.124 102.064 10.98 102.176 10.868C102.288 10.756 102.432 10.7 102.608 10.7H113.624C113.8 10.7 113.944 10.756 114.056 10.868C114.184 10.98 114.248 11.124 114.248 11.3V13.724C114.248 13.9 114.184 14.044 114.056 14.156C113.944 14.268 113.8 14.324 113.624 14.324H106.232V17.852H113.144C113.32 17.852 113.464 17.916 113.576 18.044C113.704 18.156 113.768 18.3 113.768 18.476V20.876C113.768 21.036 113.704 21.18 113.576 21.308C113.464 21.42 113.32 21.476 113.144 21.476H106.232V26.9C106.232 27.076 106.176 27.22 106.064 27.332C105.952 27.444 105.808 27.5 105.632 27.5H102.608Z" fill="#171717"/>
</svg>
