<svg width="15" height="15" viewBox="0 0 15 15" fill="none" xmlns="http://www.w3.org/2000/svg">
<path d="M5.62491 10.125L3.43741 7.9375C3.38021 7.8796 3.31209 7.83364 3.23699 7.80226C3.16189 7.77089 3.0813 7.75473 2.99991 7.75473C2.91852 7.75473 2.83794 7.77089 2.76284 7.80226C2.68774 7.83364 2.61962 7.8796 2.56241 7.9375C2.50451 7.99471 2.45854 8.06283 2.42717 8.13793C2.39579 8.21303 2.37964 8.29361 2.37964 8.375C2.37964 8.4564 2.39579 8.53698 2.42717 8.61208C2.45854 8.68718 2.50451 8.7553 2.56241 8.8125L5.18116 11.4313C5.42491 11.675 5.81866 11.675 6.06241 11.4313L12.6874 4.8125C12.7453 4.7553 12.7913 4.68718 12.8227 4.61208C12.854 4.53698 12.8702 4.4564 12.8702 4.375C12.8702 4.29361 12.854 4.21303 12.8227 4.13793C12.7913 4.06283 12.7453 3.99471 12.6874 3.9375C12.6302 3.87961 12.5621 3.83364 12.487 3.80226C12.4119 3.77089 12.3313 3.75473 12.2499 3.75473C12.1685 3.75473 12.0879 3.77089 12.0128 3.80226C11.9377 3.83364 11.8696 3.87961 11.8124 3.9375L5.62491 10.125Z" fill="#D90000"/>
</svg>

