<svg width="22" height="22" viewBox="0 0 22 22" fill="none" xmlns="http://www.w3.org/2000/svg">
<path d="M1 6C1.75 7.11111 2 9.33333 2 11C2 12.6667 1.75 14.8889 1 16M3.46 2.50778C3.2475 1.77222 3.738 1 4.4335 1H17.5665C18.262 1 18.7525 1.77222 18.54 2.50778C17.95 4.55556 17 8.27222 17 11C17 13.7278 17.95 17.4444 18.54 19.4922C18.7525 20.2283 18.262 21 17.5665 21H4.4335C3.738 21 3.2475 20.2278 3.46 19.4922C4.05 17.4444 5 13.7278 5 11C5 8.27222 4.05 4.55556 3.46 2.50778Z" stroke="black" stroke-width="2" stroke-linecap="round" stroke-linejoin="round"/>
<path d="M8 6.27771H14M8 10.9999H14M8 15.4444H10" stroke="black" stroke-width="2" stroke-linecap="round"/>
<path d="M21 6C20.25 7.11111 20 9.33333 20 11C20 12.6667 20.25 14.3333 21 16" stroke="black" stroke-width="2" stroke-linecap="round" stroke-linejoin="round"/>
</svg>
