<svg width="24" height="39" viewBox="0 0 24 39" fill="none" xmlns="http://www.w3.org/2000/svg">
<path d="M0 5C0 2.23858 2.23858 0 5 0H19C21.7614 0 24 2.23858 24 5V24C24 26.7614 21.7614 29 19 29H5C2.23858 29 0 26.7614 0 24V5Z" fill="#D9D9D9"/>
<path opacity="0.3" d="M5.63743 37.0455C5.49728 37.0455 5.37701 36.9953 5.27663 36.8949C5.17625 36.7945 5.12607 36.6742 5.12607 36.5341C5.12607 36.3939 5.17625 36.2737 5.27663 36.1733C5.37701 36.0729 5.49728 36.0227 5.63743 36.0227C5.77758 36.0227 5.89785 36.0729 5.99822 36.1733C6.0986 36.2737 6.14879 36.3939 6.14879 36.5341C6.14879 36.6269 6.12512 36.7121 6.07777 36.7898C6.03232 36.8674 5.97076 36.9299 5.89311 36.9773C5.81735 37.0227 5.73213 37.0455 5.63743 37.0455ZM7.35192 38.6364V32.6364H7.99964V33.3295H8.07919C8.12843 33.2538 8.19661 33.1572 8.28374 33.0398C8.37275 32.9205 8.49964 32.8144 8.66442 32.7216C8.83108 32.6269 9.05646 32.5795 9.34055 32.5795C9.70798 32.5795 10.0318 32.6714 10.3121 32.8551C10.5924 33.0388 10.8112 33.2992 10.9684 33.6364C11.1256 33.9735 11.2042 34.3712 11.2042 34.8295C11.2042 35.2917 11.1256 35.6922 10.9684 36.0312C10.8112 36.3684 10.5934 36.6297 10.315 36.8153C10.0366 36.9991 9.71555 37.0909 9.35192 37.0909C9.07161 37.0909 8.84718 37.0445 8.67862 36.9517C8.51006 36.857 8.38033 36.75 8.28942 36.6307C8.19851 36.5095 8.12843 36.4091 8.07919 36.3295H8.02237V38.6364H7.35192ZM8.01101 34.8182C8.01101 35.1477 8.0593 35.4384 8.15589 35.6903C8.25249 35.9403 8.39358 36.1364 8.57919 36.2784C8.7648 36.4186 8.99207 36.4886 9.26101 36.4886C9.54131 36.4886 9.77521 36.4148 9.96271 36.267C10.1521 36.1174 10.2942 35.9167 10.3888 35.6648C10.4854 35.411 10.5337 35.1288 10.5337 34.8182C10.5337 34.5114 10.4864 34.2348 10.3917 33.9886C10.2989 33.7405 10.1578 33.5445 9.96839 33.4006C9.78089 33.2547 9.5451 33.1818 9.26101 33.1818C8.98828 33.1818 8.75911 33.2509 8.57351 33.3892C8.3879 33.5256 8.24775 33.7169 8.15305 33.9631C8.05836 34.2074 8.01101 34.4924 8.01101 34.8182ZM13.8746 37.0909C13.511 37.0909 13.19 36.9991 12.9116 36.8153C12.6332 36.6297 12.4154 36.3684 12.2582 36.0312C12.101 35.6922 12.0224 35.2917 12.0224 34.8295C12.0224 34.3712 12.101 33.9735 12.2582 33.6364C12.4154 33.2992 12.6341 33.0388 12.9144 32.8551C13.1947 32.6714 13.5186 32.5795 13.886 32.5795C14.1701 32.5795 14.3945 32.6269 14.5593 32.7216C14.726 32.8144 14.8529 32.9205 14.94 33.0398C15.029 33.1572 15.0981 33.2538 15.1474 33.3295H15.2042V31.1818H15.8746V37H15.2269V36.3295H15.1474C15.0981 36.4091 15.0281 36.5095 14.9371 36.6307C14.8462 36.75 14.7165 36.857 14.5479 36.9517C14.3794 37.0445 14.1549 37.0909 13.8746 37.0909ZM13.9656 36.4886C14.2345 36.4886 14.4618 36.4186 14.6474 36.2784C14.833 36.1364 14.9741 35.9403 15.0707 35.6903C15.1673 35.4384 15.2156 35.1477 15.2156 34.8182C15.2156 34.4924 15.1682 34.2074 15.0735 33.9631C14.9788 33.7169 14.8387 33.5256 14.6531 33.3892C14.4674 33.2509 14.2383 33.1818 13.9656 33.1818C13.6815 33.1818 13.4447 33.2547 13.2553 33.4006C13.0678 33.5445 12.9267 33.7405 12.832 33.9886C12.7392 34.2348 12.6928 34.5114 12.6928 34.8182C12.6928 35.1288 12.7402 35.411 12.8349 35.6648C12.9315 35.9167 13.0735 36.1174 13.261 36.267C13.4504 36.4148 13.6853 36.4886 13.9656 36.4886ZM19.1388 32.6364V33.2045H16.7866V32.6364H19.1388ZM17.4911 37V32.0341C17.4911 31.7841 17.5498 31.5758 17.6673 31.4091C17.7847 31.2424 17.9371 31.1174 18.1246 31.0341C18.3121 30.9508 18.5101 30.9091 18.7184 30.9091C18.8832 30.9091 19.0176 30.9223 19.1218 30.9489C19.226 30.9754 19.3036 31 19.3548 31.0227L19.1616 31.6023C19.1275 31.5909 19.0801 31.5767 19.0195 31.5597C18.9608 31.5426 18.8832 31.5341 18.7866 31.5341C18.565 31.5341 18.4049 31.59 18.3065 31.7017C18.2099 31.8134 18.1616 31.9773 18.1616 32.1932V37H17.4911Z" fill="black"/>
<path d="M16.6127 14.495L8.37735 19.2497L8.37735 9.74031L16.6127 14.495Z" fill="black" fill-opacity="0.1"/>
<path fill-rule="evenodd" clip-rule="evenodd" d="M16.6127 14.495L8.37735 9.74031L8.37735 19.2497L16.6127 14.495ZM14.6127 14.495L9.37735 11.4724L9.37735 17.5177L14.6127 14.495Z" fill="black" fill-opacity="0.1"/>
</svg>
