<svg width="15" height="15" viewBox="0 0 15 15" fill="none" xmlns="http://www.w3.org/2000/svg">
<path d="M5.06928 9.93063C5.01069 9.87203 4.97778 9.79256 4.97778 9.70969C4.97778 9.62683 5.01069 9.54736 5.06928 9.48876L7.05803 7.50001L5.06928 5.51126C5.01235 5.45232 4.98086 5.37338 4.98157 5.29144C4.98228 5.20951 5.01515 5.13113 5.07309 5.07319C5.13103 5.01525 5.2094 4.98238 5.29134 4.98167C5.37328 4.98096 5.45222 5.01246 5.51115 5.06938L7.4999 7.05813L9.48865 5.06938C9.54759 5.01246 9.62653 4.98096 9.70847 4.98167C9.7904 4.98238 9.86878 5.01525 9.92672 5.07319C9.98466 5.13113 10.0175 5.20951 10.0182 5.29144C10.019 5.37338 9.98745 5.45232 9.93053 5.51126L7.94178 7.50001L9.93053 9.48876C9.98745 9.54769 10.019 9.62663 10.0182 9.70857C10.0175 9.79051 9.98466 9.86888 9.92672 9.92682C9.86878 9.98476 9.7904 10.0176 9.70847 10.0183C9.62653 10.0191 9.54759 9.98756 9.48865 9.93063L7.4999 7.94188L5.51115 9.93063C5.45255 9.98922 5.37308 10.0221 5.29022 10.0221C5.20735 10.0221 5.12788 9.98922 5.06928 9.93063Z" fill="black"/>
<path fill-rule="evenodd" clip-rule="evenodd" d="M7.5 13.75C10.9519 13.75 13.75 10.9519 13.75 7.5C13.75 4.04813 10.9519 1.25 7.5 1.25C4.04813 1.25 1.25 4.04813 1.25 7.5C1.25 10.9519 4.04813 13.75 7.5 13.75ZM7.5 13.125C10.6066 13.125 13.125 10.6066 13.125 7.5C13.125 4.39344 10.6066 1.875 7.5 1.875C4.39344 1.875 1.875 4.39344 1.875 7.5C1.875 10.6066 4.39344 13.125 7.5 13.125Z" fill="black"/>
</svg>
